<?xml version="1.0" standalone="no"?>
<!DOCTYPE svg PUBLIC "-//W3C//DTD SVG 20010904//EN"
 "http://www.w3.org/TR/2001/REC-SVG-20010904/DTD/svg10.dtd">
<svg version="1.0" xmlns="http://www.w3.org/2000/svg"
 width="2400.000000pt" height="2400.000000pt" viewBox="0 0 2400.000000 2400.000000"
 preserveAspectRatio="xMidYMid meet">

<g transform="translate(0.000000,2400.000000) scale(0.100000,-0.100000)"
fill="#000000" stroke="none">
<path d="M11308 19199 c-1952 -93 -3755 -1114 -4851 -2747 -296 -440 -565
-987 -731 -1482 -217 -651 -319 -1282 -320 -1980 0 -411 24 -705 89 -1080 315
-1815 1431 -3409 3033 -4329 1139 -655 2482 -931 3792 -780 1419 164 2705 792
3711 1815 249 254 438 479 640 761 1320 1851 1517 4306 509 6358 -897 1827
-2660 3116 -4655 3404 -417 60 -806 80 -1217 60z m627 -449 c791 -46 1517
-236 2220 -579 1159 -567 2081 -1484 2650 -2636 343 -696 533 -1404 586 -2189
15 -225 7 -715 -16 -926 -101 -957 -407 -1821 -919 -2600 -802 -1218 -2036
-2094 -3438 -2440 -294 -72 -523 -112 -843 -147 -233 -25 -893 -25 -1125 0
-637 70 -1150 200 -1705 435 -1174 495 -2166 1385 -2793 2504 -747 1333 -931
2927 -508 4404 514 1792 1873 3229 3646 3857 700 248 1497 360 2245 317z"/>
<path d="M11210 18489 c-1595 -115 -3063 -922 -4027 -2212 -57 -77 -103 -143
-101 -147 8 -22 1644 -2850 1648 -2850 3 0 680 1168 1505 2597 825 1428 1504
2602 1508 2610 7 11 -29 13 -205 12 -117 -1 -265 -6 -328 -10z"/>
<path d="M12033 18414 c-22 -38 -386 -667 -808 -1399 -422 -731 -776 -1345
-787 -1362 l-20 -33 3022 0 3021 0 -32 58 c-266 469 -531 815 -928 1212 -293
293 -515 476 -831 687 -680 455 -1484 761 -2290 872 -80 11 -181 23 -226 27
l-80 6 -41 -68z"/>
<path d="M6878 15824 c-209 -333 -421 -810 -547 -1229 -310 -1027 -319 -2108
-24 -3140 72 -254 205 -612 289 -777 l24 -48 1651 0 1650 0 -12 23 c-11 20
-2930 5078 -2984 5171 l-23 39 -24 -39z"/>
<path d="M13713 14617 c227 -392 905 -1566 1507 -2610 602 -1043 1098 -1897
1101 -1897 12 0 171 291 263 480 380 785 563 1629 543 2510 -11 469 -64 856
-178 1290 -70 270 -203 642 -314 883 l-26 57 -1654 0 -1653 0 411 -713z"/>
<path d="M12985 10089 c-825 -1429 -1502 -2607 -1504 -2616 -3 -14 16 -15 215
-9 121 4 278 11 349 17 1593 126 3040 927 3999 2214 53 72 95 135 94 141 -4
17 -1642 2853 -1648 2853 -3 0 -680 -1170 -1505 -2600z"/>
<path d="M6770 10334 c0 -26 238 -405 368 -584 754 -1042 1867 -1800 3105
-2114 264 -67 650 -133 859 -148 l48 -3 824 1428 824 1427 -3014 0 c-1658 0
-3014 -3 -3014 -6z"/>
</g>
</svg>
